<svg width="24" height="26" viewBox="0 0 24 26" fill="none" xmlns="http://www.w3.org/2000/svg">
<path d="M13.7149 15.0932C11.8024 14.3274 10.2505 12.8665 9.37082 11.0038L9.14344 10.5228L10.2917 9.37474C10.4466 9.21984 10.4466 8.96899 10.2917 8.81409L8.58609 7.1088C8.41618 6.93891 8.13513 6.95787 7.98722 7.1471C6.45721 9.10513 7.04775 12.4264 9.42922 14.8074C11.8105 17.1885 15.1326 17.7787 17.091 16.249C17.2802 16.1013 17.299 15.8201 17.1293 15.6504L15.4237 13.9451C15.2688 13.7902 15.0177 13.7902 14.8627 13.9451L13.7149 15.0932Z" fill="white"/>
<path d="M2.57229 25.0911C2.37981 25.0911 2.18941 25.0266 2.03447 24.9011C1.79117 24.7053 1.67416 24.3932 1.72821 24.086L2.51786 19.5869C0.533299 17.0362 -0.321021 13.8643 0.108509 10.6098C0.803533 5.34094 5.13487 1.02255 10.4064 0.342061C14.1175 -0.137445 17.7644 1.07943 20.4102 3.67869C23.0566 6.27796 24.3369 9.89748 23.9238 13.6099C23.3253 18.9861 18.9832 23.409 13.5997 24.127C11.4411 24.414 9.25722 24.1111 7.25597 23.2457L2.89657 25.0274C2.79208 25.0703 2.68209 25.0911 2.57229 25.0911ZM10.6258 2.04261C6.11169 2.62507 2.40313 6.32233 1.80767 10.8339C1.42384 13.7438 2.23378 16.5749 4.08844 18.8045C4.24926 18.9984 4.31715 19.2531 4.27353 19.5007L3.68471 22.8532L6.94781 21.5201C7.17044 21.4297 7.42001 21.4356 7.63676 21.5378C9.43321 22.3804 11.4168 22.6883 13.3729 22.4281C17.9866 21.8131 21.7073 18.0244 22.2205 13.4207C22.5749 10.2348 21.4771 7.12909 19.2089 4.90125C16.9408 2.67285 13.8112 1.63003 10.6258 2.04261Z" fill="white"/>
</svg>
